<svg width="64" height="64" viewBox="0 0 64 64" fill="none" xmlns="http://www.w3.org/2000/svg">
<path d="M35.1229 61.076H28.4699C25.4079 61.076 22.9258 58.5938 22.9258 55.5318V45.5524H40.667V55.5318C40.667 58.5938 38.1849 61.076 35.1229 61.076Z" fill="#6A9395"/>
<path d="M26.3754 55.5318V45.5524H22.9258V55.5318C22.9258 58.5938 25.4079 61.076 28.4699 61.076H31.9196C28.8577 61.076 26.3754 58.5938 26.3754 55.5318Z" fill="#4B686A"/>
<path d="M31.7962 14.0123C23.7671 14.0123 17.2583 20.5212 17.2583 28.5504C17.2583 34.4735 20.8009 39.5687 25.8825 41.8344V46.0453H37.71V41.8344C42.7916 39.5687 46.3342 34.4735 46.3342 28.5504C46.3342 20.5212 39.8254 14.0123 31.7962 14.0123Z" fill="#FCCA51"/>
<path d="M20.7079 28.5504C20.7079 21.105 26.3051 14.9679 33.5211 14.1146C32.9553 14.0477 32.3801 14.0123 31.7962 14.0123C23.7671 14.0123 17.2583 20.5212 17.2583 28.5504C17.2583 34.4735 20.8009 39.5687 25.8825 41.8344V46.0453H29.3321V41.8344C24.2505 39.5687 20.7079 34.4735 20.7079 28.5504Z" fill="#FDB237"/>
<path d="M35.9853 23.8687C37.8905 23.8687 39.4349 22.3242 39.4349 20.419C39.4349 18.5138 37.8905 16.9694 35.9853 16.9694C34.0801 16.9694 32.5356 18.5138 32.5356 20.419C32.5356 22.3242 34.0801 23.8687 35.9853 23.8687Z" fill="#FAF8F4" fill-opacity="0.5"/>
<path d="M31.7964 13.0883C28.5829 13.0883 25.5016 14.065 22.8855 15.9128C22.4687 16.2073 22.3695 16.7839 22.6639 17.2007C22.9585 17.6176 23.5349 17.7167 23.9518 17.4223C26.2543 15.796 28.9669 14.9363 31.7965 14.9363C39.3033 14.9363 45.4104 21.0435 45.4104 28.5502C45.4104 33.9197 42.2403 38.8028 37.334 40.9902C37.0008 41.1388 36.7863 41.4694 36.7863 41.8342V44.6282H35.6847V32.1046H37.3369C38.4944 32.1046 39.5104 31.4063 39.925 30.3257C40.3397 29.2451 40.0517 28.0464 39.1913 27.2722L38.4631 26.6167C37.6379 25.8739 36.4951 25.6932 35.4808 26.1448C34.4665 26.5966 33.8365 27.5669 33.8365 28.6771V30.2566H29.7563V28.6771C29.7563 27.5668 29.1262 26.5966 28.112 26.1448C27.0978 25.6931 25.9551 25.8739 25.1297 26.6167L24.4017 27.2722C23.5414 28.0465 23.2533 29.2451 23.6679 30.3257C24.0826 31.4063 25.0986 32.1046 26.256 32.1046H27.9083V44.6283H26.8066V41.8343C26.8066 41.4695 26.592 41.1388 26.2588 40.9904C21.3526 38.8029 18.1824 33.9199 18.1824 28.5503C18.1824 25.407 19.2227 22.4549 21.1912 20.0132C21.5113 19.6158 21.4489 19.0341 21.0517 18.714C20.6546 18.3939 20.0728 18.4563 19.7525 18.8534C17.5484 21.5877 16.3345 25.0315 16.3345 28.5503C16.3345 34.4465 19.6996 39.8258 24.9587 42.421V44.6283H22.9258C22.4154 44.6283 22.0018 45.042 22.0018 45.5524V55.5318C22.0018 59.0984 24.9033 62 28.4699 62H35.1229C38.6895 62 41.5911 59.0984 41.5911 55.5318V52.9445C41.5911 52.4342 41.1774 52.0205 40.667 52.0205C40.1567 52.0205 39.743 52.4342 39.743 52.9445V54.6078H23.8498V51.4045H37.2174C37.7277 51.4045 38.1414 50.9908 38.1414 50.4804C38.1414 49.9701 37.7277 49.5564 37.2174 49.5564H23.8498V46.4764H39.743V48.0165C39.743 48.5268 40.1567 48.9405 40.667 48.9405C41.1774 48.9405 41.5911 48.5268 41.5911 48.0165V45.5524C41.5911 45.042 41.1774 44.6283 40.667 44.6283H38.6342V42.421C43.8932 39.8256 47.2584 34.4463 47.2584 28.5503C47.2585 20.0245 40.3222 13.0883 31.7964 13.0883ZM35.6846 28.677C35.6846 28.1202 36.1041 27.8902 36.2327 27.8329C36.3613 27.7757 36.813 27.6177 37.2267 27.9902L37.9549 28.6456C38.3928 29.0398 38.2527 29.5243 38.1994 29.6635C38.1461 29.8026 37.926 30.2565 37.3368 30.2565H35.6846V28.677ZM35.1229 60.1519H28.4699C26.2387 60.1519 24.3721 58.5622 23.9429 56.4558H39.6502C39.2207 58.5622 37.3542 60.1519 35.1229 60.1519ZM26.2559 30.2566C25.4227 30.2566 25.015 29.2061 25.6378 28.6457L26.3658 27.9903C26.9545 27.4605 27.9081 27.8926 27.9081 28.6771V30.2566H26.2559ZM29.7563 32.1046H33.8365V44.6283H29.7563V32.1046Z" fill="#6D6987"/>
<path d="M31.7966 9.02258C32.3069 9.02258 32.7206 8.60891 32.7206 8.09855V2.92402C32.7206 2.41367 32.3069 2 31.7966 2C31.2862 2 30.8726 2.41367 30.8726 2.92402V8.09855C30.8726 8.60891 31.2862 9.02258 31.7966 9.02258Z" fill="#A3A0B5"/>
<path d="M20.6471 11.3336C20.9186 11.804 21.5573 11.9379 21.9957 11.6155C22.37 11.3402 22.4797 10.8116 22.2477 10.4096L19.6604 5.92837C19.4053 5.48645 18.8401 5.33493 18.3982 5.59016C17.9562 5.84528 17.8048 6.41048 18.06 6.85239L20.6471 11.3336Z" fill="#A3A0B5"/>
<path d="M14.3337 17.6474L9.85246 15.0601C9.41043 14.8049 8.84523 14.9564 8.59023 15.3983C8.33512 15.8403 8.48652 16.4054 8.92844 16.6606L13.4097 19.2478C13.881 19.5201 14.5006 19.3149 14.7184 18.8176C14.905 18.3921 14.7357 17.8793 14.3337 17.6474Z" fill="#A3A0B5"/>
<path d="M12.0226 28.7967C12.0226 28.2864 11.6089 27.8727 11.0986 27.8727H5.92402C5.41367 27.8727 5 28.2864 5 28.7967C5 29.3071 5.41367 29.7207 5.92402 29.7207H11.0986C11.6088 29.7207 12.0226 29.3071 12.0226 28.7967Z" fill="#A3A0B5"/>
<path d="M13.4095 38.3456L8.92825 40.9328C8.52618 41.1649 8.35696 41.6776 8.54353 42.1032C8.76149 42.6004 9.38095 42.8057 9.85228 42.5334L14.3335 39.9461C14.7754 39.691 14.9268 39.1258 14.6717 38.6839C14.4165 38.242 13.8514 38.0905 13.4095 38.3456Z" fill="#A3A0B5"/>
<path d="M54.6648 40.9328L50.1835 38.3455C49.7415 38.0903 49.1764 38.2418 48.9213 38.6837C48.6662 39.1257 48.8176 39.6908 49.2595 39.946L53.7407 42.5332C54.2121 42.8055 54.8316 42.6003 55.0495 42.103C55.2362 41.6775 55.0668 41.1648 54.6648 40.9328Z" fill="#A3A0B5"/>
<path d="M57.6694 27.8727H52.4948C51.9845 27.8727 51.5708 28.2864 51.5708 28.7967C51.5708 29.3071 51.9845 29.7207 52.4948 29.7207H57.6694C58.1797 29.7207 58.5934 29.3071 58.5934 28.7967C58.5934 28.2865 58.1797 27.8727 57.6694 27.8727Z" fill="#A3A0B5"/>
<path d="M49.7224 19.3718C49.8791 19.3718 50.0381 19.3318 50.1835 19.2478L54.6648 16.6605C55.1067 16.4054 55.2581 15.8402 55.003 15.3983C54.7478 14.9564 54.1827 14.805 53.7407 15.0601L49.2595 17.6473C48.8176 17.9025 48.6662 18.4677 48.9213 18.9096C49.0925 19.2061 49.403 19.3718 49.7224 19.3718Z" fill="#A3A0B5"/>
<path d="M41.6839 11.6718C42.1204 11.9239 42.6945 11.7695 42.9461 11.3336L45.5334 6.85239C45.7885 6.41048 45.6371 5.84528 45.1952 5.59016C44.7533 5.33493 44.1881 5.48645 43.9329 5.92837L41.3457 10.4096C41.0904 10.8515 41.2419 11.4167 41.6839 11.6718Z" fill="#A3A0B5"/>
</svg>
